<?xml version="1.0" encoding="UTF-8" standalone="no"?>
<svg
   xmlns:dc="http://purl.org/dc/elements/1.1/"
   xmlns:cc="http://creativecommons.org/ns#"
   xmlns:rdf="http://www.w3.org/1999/02/22-rdf-syntax-ns#"
   xmlns:svg="http://www.w3.org/2000/svg"
   xmlns="http://www.w3.org/2000/svg"
   xmlns:sodipodi="http://sodipodi.sourceforge.net/DTD/sodipodi-0.dtd"
   xmlns:inkscape="http://www.inkscape.org/namespaces/inkscape"
   width="206mm"
   height="206mm"
   viewBox="0 0 206.00001 206"
   version="1.1"
   id="svg931"
   inkscape:version="1.0.1 (0767f8302a, 2020-10-17)"
   sodipodi:docname="logo4.svg">
  <defs
     id="defs925" />
  <sodipodi:namedview
     id="base"
     pagecolor="#ffffff"
     bordercolor="#666666"
     borderopacity="1.0"
     inkscape:pageopacity="0.0"
     inkscape:pageshadow="2"
     inkscape:zoom="0.54170125"
     inkscape:cx="187.00756"
     inkscape:cy="434.04093"
     inkscape:document-units="mm"
     inkscape:current-layer="layer1"
     inkscape:document-rotation="0"
     showgrid="false"
     width="203.6mm"
     inkscape:window-width="1223"
     inkscape:window-height="696"
     inkscape:window-x="57"
     inkscape:window-y="24"
     inkscape:window-maximized="1" />
  <metadata
     id="metadata928">
    <rdf:RDF>
      <cc:Work
         rdf:about="">
        <dc:format>image/svg+xml</dc:format>
        <dc:type
           rdf:resource="http://purl.org/dc/dcmitype/StillImage" />
        <dc:title></dc:title>
      </cc:Work>
    </rdf:RDF>
  </metadata>
  <g
     inkscape:label="Vrstva 1"
     inkscape:groupmode="layer"
     id="layer1">
    <path
       style="fill:#0072b5;fill-opacity:1;stroke:#0072b5;stroke-width:0.826968;stroke-linecap:round;stroke-miterlimit:4;stroke-dasharray:none;stroke-opacity:0.996078"
       d="m -213.75162,100.45193 c -7.57335,7.55082 -14.92195,15.78781 -14.69884,25.92296 l 0.42788,19.45618 0.63355,29.40131 c -0.0619,13.9768 -10.99901,25.58763 -24.9437,26.45626 l -5.32991,0.21808 -15.15411,0.59944 -8.20828,0.32453 c -0.29298,0.0113 -0.58459,0.0171 -0.8754,0.0181 l -25.23257,1.01441 c -7.82312,0.30947 -15.1333,5.29725 -20.545,11.32902 l 6.29367,6.27869 c 4.40112,-5.29153 10.30735,-9.68204 16.9261,-10.09551 l 5.42138,-0.22221 15.06833,-0.59583 8.20777,-0.32504 c 0.29298,-0.0113 0.58407,-0.0156 0.87488,-0.0176 l 25.23257,-1.01441 h 0.001 c 17.68399,-0.69956 31.60615,-15.52412 31.21618,-33.2388 l -0.42839,-19.45669 -0.63356,-29.40182 c 0.0347,-7.78101 5.59976,-14.85768 11.52178,-20.92327 z"
       id="path1536" />
    <path
       style="fill:#0072b5;fill-opacity:1;stroke:#0072b5;stroke-width:0.826968;stroke-linecap:round;stroke-miterlimit:4;stroke-dasharray:none;stroke-opacity:0.996078"
       d="m -224.42745,89.844308 c -6.01552,5.972881 -13.04516,11.596712 -20.82561,11.696962 l -29.40595,-0.38603 -19.46031,-0.26458 c -17.71733,-0.24081 -32.42355,13.80598 -32.97422,31.49524 v 5.1e-4 l -0.80253,25.24032 c 4.6e-4,0.29082 -0.002,0.58233 -0.0103,0.8754 l -0.2558,8.21035 -0.4687,15.07247 -0.17673,5.42292 c -0.35774,6.622 -4.6986,12.56534 -9.95288,17.01085 l 6.33191,6.24045 c 5.986,-5.46228 10.91179,-12.81412 11.15539,-20.63957 l 0.80253,-25.24032 c -0.001,-0.29081 0.002,-0.58235 0.0103,-0.8754 l 0.25528,-8.21087 0.47181,-15.15825 0.17363,-5.33145 c 0.75119,-13.95151 12.26964,-24.98632 26.24543,-25.16591 l 29.40492,0.38551 19.45979,0.26458 c 10.13667,0.13777 18.31112,-7.28026 25.79791,-14.916917 z"
       id="path1517" />
    <g
       id="g898">
      <g
         id="g869">
        <path
           style="fill:#00a170;fill-opacity:1;stroke:#00a170;stroke-width:1.27069;stroke-linecap:round;stroke-miterlimit:4;stroke-dasharray:none;stroke-opacity:0.99607843"
           d="m 194.17429,18.485636 c -7.89383,8.649327 -22.92851,24.258965 -22.58571,39.832269 l 0.65747,29.895628 0.97351,45.176937 c -0.0951,21.47623 -16.90068,39.31701 -38.32756,40.6517 l -8.18975,0.33509 -23.28524,0.92109 -12.612548,0.49866 c -0.450172,0.0173 -0.898258,0.0263 -1.345103,0.0278 l -38.771425,1.5587 C 38.66721,177.85906 27.434665,185.5231 19.119251,194.7913 l 9.670622,9.64759 c 6.762589,-8.13076 15.837881,-14.87706 26.008015,-15.51238 l 8.330282,-0.34143 23.153437,-0.91553 12.611748,-0.49946 c 0.450201,-0.0173 0.897458,-0.024 1.344295,-0.027 l 38.77143,-1.55868 h 10e-4 c 27.17257,-1.07494 48.56484,-23.85381 47.96564,-51.07351 l -0.65825,-29.89644 -0.9735,-45.177725 c 0.0533,-11.95601 10.16947,-23.165016 18.50032,-31.303483 z"
           id="path18" />
        <path
           style="fill:#0072b5;fill-opacity:1;stroke:#0072b5;stroke-width:1.27069;stroke-linecap:round;stroke-miterlimit:4;stroke-dasharray:none;stroke-opacity:0.99607843"
           d="M 177.14537,1.6241814 C 172.52975,6.4238504 157.7255,20.005435 145.77035,20.159475 L 100.58624,19.566331 70.684264,19.159772 C 43.460481,18.789752 20.863441,40.373544 20.017311,67.554181 v 8.16e-4 l -1.233146,38.783313 c 6.91e-4,0.44687 -0.0023,0.89479 -0.01588,1.34511 l -0.393051,12.61572 -0.720193,23.15978 -0.271563,8.33267 c -0.549677,10.17512 -7.219689,19.30744 -15.2932252,26.13824 l 9.7293802,9.58883 c 9.197865,-8.39313 16.766654,-19.68969 17.140962,-31.71398 l 1.233145,-38.78334 c -0.0023,-0.44684 0.0023,-0.89482 0.01588,-1.3451 l 0.392258,-12.61652 0.724959,-23.291591 0.266796,-8.192117 C 32.747885,50.138647 50.446712,33.182982 71.921379,32.90703 l 45.182521,0.592361 29.90119,0.406545 c 15.57563,0.211692 39.86965,-22.692913 39.86965,-22.692913 z"
           id="path945" />
        <g
           aria-label="HiTEA"
           id="text1521"
           style="font-style:normal;font-variant:normal;font-weight:normal;font-stretch:normal;font-size:50.8px;line-height:1.25;font-family:'Fjalla One';-inkscape-font-specification:'Fjalla One';stroke-width:0.264583"
           transform="matrix(1.0196771,0,0,1.0196771,-2.8917219,-58.357725)">
          <path
             d="m 49.989965,136.44774 h 6.424414 v 17.73535 h 7.615039 v -17.73535 h 6.424414 v 42.36641 h -6.424414 v -19.5709 h -7.615039 v 19.5709 h -6.424414 z"
             style="font-style:normal;font-variant:normal;font-weight:normal;font-stretch:normal;font-size:50.8px;font-family:'Fjalla One';-inkscape-font-specification:'Fjalla One';stroke-width:0.264583"
             id="path1523" />
          <path
             d="m 80.722973,139.77157 q -1.736328,0 -2.75332,-1.0418 -0.992188,-1.04179 -0.992188,-3.05097 0,-1.11621 0.248047,-1.86035 0.272851,-0.76895 0.744141,-1.21543 0.496093,-0.47129 1.190624,-0.66973 0.694532,-0.22324 1.5875,-0.22324 1.860352,0 2.827735,0.94258 0.967383,0.94257 0.967383,3.02617 0,1.93476 -0.992188,3.02617 -0.967383,1.0666 -2.827734,1.0666 z m -3.249414,4.88652 h 6.275586 v 34.15606 h -6.275586 z"
             style="font-style:normal;font-variant:normal;font-weight:normal;font-stretch:normal;font-size:50.8px;font-family:'Fjalla One';-inkscape-font-specification:'Fjalla One';stroke-width:0.264583"
             id="path1525" />
          <path
             d="m 94.588793,141.5079 h -6.821289 v -5.06016 h 20.042186 v 5.06016 h -6.79648 v 37.30625 h -6.424417 z"
             style="font-style:normal;font-variant:normal;font-weight:normal;font-stretch:normal;font-size:50.8px;font-family:'Fjalla One';-inkscape-font-specification:'Fjalla One';stroke-width:0.264583"
             id="path1527" />
          <path
             d="m 112.20012,136.44774 h 15.70137 v 5.06016 h -9.27696 v 12.67519 h 7.16856 v 5.06016 h -7.16856 v 14.51074 h 9.525 v 5.06016 h -15.94941 z"
             style="font-style:normal;font-variant:normal;font-weight:normal;font-stretch:normal;font-size:50.8px;font-family:'Fjalla One';-inkscape-font-specification:'Fjalla One';stroke-width:0.264583"
             id="path1529" />
          <path
             d="m 137.5009,136.44774 h 7.3918 l 7.83828,42.36641 h -6.49883 l -1.16582,-7.59024 h -7.73906 l -1.11621,7.59024 h -6.52363 z m 6.82129,29.93926 -2.97656,-21.10879 h -0.27285 l -3.00137,21.10879 z"
             style="font-style:normal;font-variant:normal;font-weight:normal;font-stretch:normal;font-size:50.8px;font-family:'Fjalla One';-inkscape-font-specification:'Fjalla One';stroke-width:0.264583"
             id="path1531" />
        </g>
      </g>
    </g>
  </g>
</svg>
